<svg width="411" height="110" viewBox="0 0 411 110" fill="none" xmlns="http://www.w3.org/2000/svg">
<g filter="url(#filter0_bd_1_1202)">
<rect x="10" y="5" width="390.853" height="89.2727" rx="12.4126" fill="black" fill-opacity="0.5" shape-rendering="crispEdges"/>
<path d="M71.6642 68.0338L61.4678 57.8394C64.4231 54.2913 65.8968 49.7404 65.5823 45.1335C65.2677 40.5265 63.1892 36.2182 59.779 33.1047C56.3689 29.9912 51.8897 28.3123 47.2732 28.4172C42.6567 28.5222 38.2584 30.4028 34.9932 33.668C31.728 36.9332 29.8473 41.3315 29.7424 45.948C29.6375 50.5645 31.3164 55.0437 34.4299 58.4538C37.5434 61.864 41.8517 63.9425 46.4587 64.2571C51.0656 64.5716 55.6165 63.0979 59.1646 60.1426L69.359 70.339C69.5103 70.4904 69.69 70.6105 69.8878 70.6924C70.0856 70.7743 70.2975 70.8165 70.5116 70.8165C70.7257 70.8165 70.9376 70.7743 71.1354 70.6924C71.3332 70.6105 71.5129 70.4904 71.6642 70.339C71.8156 70.1877 71.9357 70.008 72.0176 69.8102C72.0995 69.6124 72.1417 69.4005 72.1417 69.1864C72.1417 68.9723 72.0995 68.7604 72.0176 68.5626C71.9357 68.3648 71.8156 68.1851 71.6642 68.0338ZM33.0411 46.3783C33.0411 43.4783 33.901 40.6435 35.5122 38.2323C37.1233 35.8211 39.4132 33.9418 42.0924 32.832C44.7716 31.7223 47.7197 31.4319 50.564 31.9976C53.4082 32.5634 56.0208 33.9599 58.0713 36.0104C60.1219 38.061 61.5184 40.6736 62.0841 43.5178C62.6499 46.362 62.3595 49.3101 61.2497 51.9893C60.14 54.6685 58.2607 56.9585 55.8494 58.5696C53.4382 60.1807 50.6034 61.0406 47.7035 61.0406C43.8161 61.0363 40.0892 59.4902 37.3404 56.7414C34.5916 53.9926 33.0454 50.2657 33.0411 46.3783Z" fill="white"/>
<path d="M94.338 41.8955H89.0776V25.6463H94.5046C96.0967 25.6463 97.464 25.9716 98.6065 26.6222C99.7491 27.2675 100.624 28.1958 101.233 29.4071C101.846 30.6131 102.153 32.0598 102.153 33.7471C102.153 35.4397 101.844 36.8943 101.225 38.1109C100.611 39.3275 99.7226 40.2637 98.5589 40.9196C97.3953 41.5702 95.9883 41.8955 94.338 41.8955ZM91.5293 39.7533H94.2031C95.4408 39.7533 96.4696 39.5205 97.2895 39.0551C98.1093 38.5843 98.7229 37.9046 99.1302 37.016C99.5375 36.1221 99.7411 35.0324 99.7411 33.7471C99.7411 32.4723 99.5375 31.3907 99.1302 30.502C98.7282 29.6134 98.1279 28.939 97.3291 28.4788C96.5304 28.0186 95.5387 27.7885 94.3538 27.7885H91.5293V39.7533ZM110.264 42.1415C109.063 42.1415 108.029 41.8849 107.162 41.3719C106.299 40.8535 105.633 40.1262 105.162 39.19C104.697 38.2484 104.464 37.1456 104.464 35.8814C104.464 34.6331 104.697 33.5329 105.162 32.5808C105.633 31.6287 106.289 30.8855 107.13 30.3513C107.976 29.817 108.965 29.5499 110.097 29.5499C110.785 29.5499 111.451 29.6636 112.097 29.8911C112.742 30.1185 113.321 30.4756 113.834 30.9622C114.347 31.4488 114.752 32.0809 115.048 32.8585C115.344 33.6307 115.492 34.5696 115.492 35.6751V36.5161H105.805V34.7389H113.168C113.168 34.1147 113.041 33.562 112.787 33.0806C112.533 32.594 112.176 32.2105 111.716 31.9302C111.261 31.6498 110.727 31.5097 110.113 31.5097C109.447 31.5097 108.865 31.6736 108.368 32.0016C107.876 32.3242 107.495 32.7474 107.225 33.2711C106.961 33.7894 106.828 34.3527 106.828 34.961V36.3495C106.828 37.1641 106.971 37.857 107.257 38.4283C107.548 38.9995 107.952 39.4359 108.471 39.7374C108.989 40.0336 109.595 40.1817 110.288 40.1817C110.737 40.1817 111.147 40.1183 111.517 39.9913C111.888 39.8591 112.208 39.6634 112.477 39.4042C112.747 39.145 112.954 38.825 113.096 38.4441L115.342 38.8488C115.162 39.51 114.839 40.0892 114.374 40.5864C113.914 41.0783 113.334 41.4618 112.636 41.7368C111.943 42.0066 111.152 42.1415 110.264 42.1415ZM127.257 32.6839L125.107 33.0648C125.017 32.7897 124.874 32.5279 124.678 32.2793C124.488 32.0307 124.229 31.827 123.901 31.6683C123.573 31.5097 123.163 31.4303 122.671 31.4303C121.999 31.4303 121.438 31.5811 120.989 31.8826C120.539 32.1788 120.314 32.5623 120.314 33.033C120.314 33.4403 120.465 33.7683 120.767 34.0169C121.068 34.2655 121.555 34.4691 122.227 34.6278L124.163 35.0721C125.284 35.3313 126.12 35.7306 126.67 36.2702C127.22 36.8097 127.495 37.5105 127.495 38.3727C127.495 39.1027 127.283 39.7533 126.86 40.3245C126.442 40.8905 125.858 41.3348 125.107 41.6575C124.361 41.9801 123.496 42.1415 122.512 42.1415C121.148 42.1415 120.034 41.8505 119.172 41.2687C118.31 40.6816 117.781 39.8485 117.585 38.7694L119.878 38.4203C120.021 39.018 120.314 39.4703 120.759 39.7771C121.203 40.0786 121.782 40.2293 122.496 40.2293C123.274 40.2293 123.895 40.068 124.361 39.7453C124.826 39.4174 125.059 39.018 125.059 38.5473C125.059 38.1664 124.916 37.8464 124.631 37.5872C124.35 37.3281 123.919 37.1324 123.337 37.0001L121.275 36.5479C120.137 36.2887 119.296 35.8761 118.751 35.3101C118.212 34.7442 117.942 34.0274 117.942 33.16C117.942 32.4406 118.143 31.8112 118.545 31.2716C118.947 30.7321 119.503 30.3116 120.211 30.0101C120.92 29.7033 121.732 29.5499 122.647 29.5499C123.964 29.5499 125.001 29.8356 125.757 30.4068C126.514 30.9728 127.014 31.7318 127.257 32.6839ZM136.016 41.8955V29.7086H138.293V31.6921H138.444C138.698 31.0204 139.113 30.4967 139.69 30.1212C140.266 29.7403 140.957 29.5499 141.761 29.5499C142.575 29.5499 143.257 29.7403 143.808 30.1212C144.363 30.502 144.773 31.0257 145.037 31.6921H145.164C145.455 31.0415 145.918 30.5232 146.553 30.137C147.188 29.7456 147.944 29.5499 148.822 29.5499C149.927 29.5499 150.829 29.8964 151.528 30.5893C152.231 31.2822 152.583 32.3269 152.583 33.7233V41.8955H150.21V33.9455C150.21 33.1203 149.986 32.5226 149.536 32.1523C149.086 31.7821 148.55 31.5969 147.925 31.5969C147.153 31.5969 146.553 31.835 146.124 32.311C145.696 32.7818 145.482 33.3874 145.482 34.1279V41.8955H143.117V33.7947C143.117 33.1335 142.911 32.6019 142.498 32.1999C142.086 31.7979 141.549 31.5969 140.888 31.5969C140.438 31.5969 140.023 31.716 139.642 31.954C139.267 32.1867 138.962 32.512 138.73 32.9299C138.502 33.3477 138.389 33.8317 138.389 34.3818V41.8955H136.016ZM161.015 42.1415C159.814 42.1415 158.78 41.8849 157.913 41.3719C157.05 40.8535 156.384 40.1262 155.913 39.19C155.448 38.2484 155.215 37.1456 155.215 35.8814C155.215 34.6331 155.448 33.5329 155.913 32.5808C156.384 31.6287 157.04 30.8855 157.881 30.3513C158.727 29.817 159.716 29.5499 160.848 29.5499C161.536 29.5499 162.202 29.6636 162.848 29.8911C163.493 30.1185 164.072 30.4756 164.585 30.9622C165.098 31.4488 165.503 32.0809 165.799 32.8585C166.095 33.6307 166.243 34.5696 166.243 35.6751V36.5161H156.556V34.7389H163.919C163.919 34.1147 163.792 33.562 163.538 33.0806C163.284 32.594 162.927 32.2105 162.467 31.9302C162.012 31.6498 161.478 31.5097 160.864 31.5097C160.198 31.5097 159.616 31.6736 159.119 32.0016C158.627 32.3242 158.246 32.7474 157.976 33.2711C157.712 33.7894 157.579 34.3527 157.579 34.961V36.3495C157.579 37.1641 157.722 37.857 158.008 38.4283C158.299 38.9995 158.703 39.4359 159.222 39.7374C159.74 40.0336 160.346 40.1817 161.039 40.1817C161.488 40.1817 161.898 40.1183 162.268 39.9913C162.639 39.8591 162.959 39.6634 163.228 39.4042C163.498 39.145 163.705 38.825 163.847 38.4441L166.093 38.8488C165.913 39.51 165.59 40.0892 165.125 40.5864C164.665 41.0783 164.085 41.4618 163.387 41.7368C162.694 42.0066 161.903 42.1415 161.015 42.1415ZM159.777 28.0821L161.634 24.4244H164.133L161.673 28.0821H159.777ZM173.438 42.1335C172.454 42.1335 171.576 41.8823 170.804 41.3798C170.037 40.872 169.434 40.15 168.995 39.2138C168.561 38.2722 168.344 37.1429 168.344 35.8259C168.344 34.5088 168.564 33.3821 169.003 32.4459C169.447 31.5097 170.055 30.7929 170.827 30.2957C171.6 29.7985 172.475 29.5499 173.454 29.5499C174.21 29.5499 174.818 29.6769 175.279 29.9308C175.744 30.1794 176.104 30.4703 176.358 30.8035C176.617 31.1368 176.818 31.4303 176.961 31.6842H177.103V25.6463H179.476V41.8955H177.159V39.9992H176.961C176.818 40.2584 176.611 40.5546 176.342 40.8879C176.077 41.2211 175.712 41.512 175.247 41.7606C174.781 42.0092 174.178 42.1335 173.438 42.1335ZM173.961 40.1103C174.644 40.1103 175.22 39.9305 175.691 39.5708C176.167 39.2058 176.527 38.7007 176.77 38.0554C177.019 37.41 177.143 36.6589 177.143 35.8021C177.143 34.9557 177.021 34.2152 176.778 33.5805C176.535 32.9457 176.178 32.4512 175.707 32.0968C175.236 31.7424 174.654 31.5652 173.961 31.5652C173.247 31.5652 172.652 31.7503 172.176 32.1206C171.7 32.4909 171.341 32.996 171.097 33.636C170.859 34.276 170.74 34.9981 170.74 35.8021C170.74 36.6166 170.862 37.3492 171.105 37.9998C171.348 38.6504 171.708 39.1661 172.184 39.547C172.666 39.9225 173.258 40.1103 173.961 40.1103ZM188.114 42.1415C186.913 42.1415 185.879 41.8849 185.012 41.3719C184.15 40.8535 183.483 40.1262 183.012 39.19C182.547 38.2484 182.314 37.1456 182.314 35.8814C182.314 34.6331 182.547 33.5329 183.012 32.5808C183.483 31.6287 184.139 30.8855 184.98 30.3513C185.826 29.817 186.815 29.5499 187.947 29.5499C188.635 29.5499 189.302 29.6636 189.947 29.8911C190.592 30.1185 191.171 30.4756 191.684 30.9622C192.197 31.4488 192.602 32.0809 192.898 32.8585C193.195 33.6307 193.343 34.5696 193.343 35.6751V36.5161H183.655V34.7389H191.018C191.018 34.1147 190.891 33.562 190.637 33.0806C190.383 32.594 190.026 32.2105 189.566 31.9302C189.111 31.6498 188.577 31.5097 187.963 31.5097C187.297 31.5097 186.715 31.6736 186.218 32.0016C185.726 32.3242 185.345 32.7474 185.075 33.2711C184.811 33.7894 184.679 34.3527 184.679 34.961V36.3495C184.679 37.1641 184.821 37.857 185.107 38.4283C185.398 38.9995 185.803 39.4359 186.321 39.7374C186.839 40.0336 187.445 40.1817 188.138 40.1817C188.587 40.1817 188.997 40.1183 189.368 39.9913C189.738 39.8591 190.058 39.6634 190.328 39.4042C190.597 39.145 190.804 38.825 190.947 38.4441L193.192 38.8488C193.012 39.51 192.689 40.0892 192.224 40.5864C191.764 41.0783 191.185 41.4618 190.486 41.7368C189.793 42.0066 189.003 42.1415 188.114 42.1415ZM201.108 42.1415C199.929 42.1415 198.913 41.8743 198.062 41.3401C197.215 40.8006 196.565 40.0574 196.11 39.1106C195.655 38.1638 195.427 37.0795 195.427 35.8576C195.427 34.6199 195.66 33.5276 196.126 32.5808C196.591 31.6287 197.247 30.8855 198.093 30.3513C198.94 29.817 199.937 29.5499 201.084 29.5499C202.01 29.5499 202.835 29.7218 203.56 30.0656C204.285 30.4042 204.869 30.8802 205.313 31.4938C205.763 32.1074 206.03 32.8241 206.115 33.644H203.806C203.679 33.0727 203.388 32.5808 202.933 32.1682C202.484 31.7556 201.881 31.5493 201.124 31.5493C200.463 31.5493 199.884 31.7239 199.387 32.073C198.895 32.4168 198.511 32.9087 198.236 33.5487C197.961 34.1835 197.823 34.9346 197.823 35.8021C197.823 36.6907 197.958 37.4577 198.228 38.103C198.498 38.7483 198.879 39.2481 199.371 39.6025C199.868 39.9569 200.452 40.1341 201.124 40.1341C201.574 40.1341 201.981 40.0521 202.346 39.8882C202.716 39.7189 203.026 39.4782 203.274 39.1661C203.528 38.8541 203.705 38.4785 203.806 38.0395H206.115C206.03 38.8276 205.774 39.5311 205.345 40.15C204.917 40.7689 204.343 41.2555 203.623 41.6099C202.909 41.9643 202.071 42.1415 201.108 42.1415ZM208.652 41.8955V29.7086H211.024V41.8955H208.652ZM209.85 27.8282C209.437 27.8282 209.083 27.6907 208.787 27.4156C208.496 27.1353 208.35 26.802 208.35 26.4159C208.35 26.0245 208.496 25.6913 208.787 25.4162C209.083 25.1359 209.437 24.9957 209.85 24.9957C210.262 24.9957 210.614 25.1359 210.905 25.4162C211.201 25.6913 211.349 26.0245 211.349 26.4159C211.349 26.802 211.201 27.1353 210.905 27.4156C210.614 27.6907 210.262 27.8282 209.85 27.8282ZM216.588 34.6595V41.8955H214.216V29.7086H216.493V31.6921H216.643C216.924 31.0468 217.363 30.5285 217.96 30.137C218.563 29.7456 219.322 29.5499 220.238 29.5499C221.068 29.5499 221.795 29.7245 222.419 30.0736C223.044 30.4174 223.528 30.9305 223.871 31.6128C224.215 32.2951 224.387 33.1388 224.387 34.1438V41.8955H222.015V34.4294C222.015 33.5461 221.785 32.8558 221.325 32.3586C220.864 31.8561 220.232 31.6049 219.428 31.6049C218.878 31.6049 218.389 31.7239 217.96 31.9619C217.537 32.1999 217.201 32.549 216.953 33.0092C216.709 33.4641 216.588 34.0142 216.588 34.6595ZM236.701 32.6839L234.551 33.0648C234.461 32.7897 234.318 32.5279 234.122 32.2793C233.932 32.0307 233.673 31.827 233.345 31.6683C233.017 31.5097 232.607 31.4303 232.115 31.4303C231.443 31.4303 230.883 31.5811 230.433 31.8826C229.983 32.1788 229.759 32.5623 229.759 33.033C229.759 33.4403 229.909 33.7683 230.211 34.0169C230.512 34.2655 230.999 34.4691 231.671 34.6278L233.607 35.0721C234.728 35.3313 235.564 35.7306 236.114 36.2702C236.664 36.8097 236.939 37.5105 236.939 38.3727C236.939 39.1027 236.727 39.7533 236.304 40.3245C235.886 40.8905 235.302 41.3348 234.551 41.6575C233.805 41.9801 232.94 42.1415 231.956 42.1415C230.592 42.1415 229.478 41.8505 228.616 41.2687C227.754 40.6816 227.225 39.8485 227.029 38.7694L229.322 38.4203C229.465 39.018 229.759 39.4703 230.203 39.7771C230.647 40.0786 231.226 40.2293 231.94 40.2293C232.718 40.2293 233.34 40.068 233.805 39.7453C234.27 39.4174 234.503 39.018 234.503 38.5473C234.503 38.1664 234.36 37.8464 234.075 37.5872C233.794 37.3281 233.363 37.1324 232.781 37.0001L230.719 36.5479C229.581 36.2887 228.74 35.8761 228.196 35.3101C227.656 34.7442 227.386 34.0274 227.386 33.16C227.386 32.4406 227.587 31.8112 227.989 31.2716C228.391 30.7321 228.947 30.3116 229.655 30.0101C230.364 29.7033 231.176 29.5499 232.091 29.5499C233.408 29.5499 234.445 29.8356 235.201 30.4068C235.958 30.9728 236.458 31.7318 236.701 32.6839ZM245.651 41.8955V25.6463H248.023V31.6842H248.166C248.303 31.4303 248.502 31.1368 248.761 30.8035C249.02 30.4703 249.38 30.1794 249.84 29.9308C250.3 29.6769 250.908 29.5499 251.665 29.5499C252.649 29.5499 253.527 29.7985 254.299 30.2957C255.071 30.7929 255.677 31.5097 256.116 32.4459C256.56 33.3821 256.782 34.5088 256.782 35.8259C256.782 37.1429 256.563 38.2722 256.124 39.2138C255.685 40.15 255.082 40.872 254.315 41.3798C253.548 41.8823 252.672 42.1335 251.689 42.1335C250.948 42.1335 250.342 42.0092 249.872 41.7606C249.406 41.512 249.041 41.2211 248.777 40.8879C248.512 40.5546 248.309 40.2584 248.166 39.9992H247.968V41.8955H245.651ZM247.975 35.8021C247.975 36.6589 248.1 37.41 248.348 38.0554C248.597 38.7007 248.957 39.2058 249.427 39.5708C249.898 39.9305 250.475 40.1103 251.157 40.1103C251.866 40.1103 252.458 39.9225 252.934 39.547C253.41 39.1661 253.77 38.6504 254.013 37.9998C254.262 37.3492 254.386 36.6166 254.386 35.8021C254.386 34.9981 254.265 34.276 254.021 33.636C253.783 32.996 253.424 32.4909 252.942 32.1206C252.466 31.7503 251.871 31.5652 251.157 31.5652C250.469 31.5652 249.888 31.7424 249.412 32.0968C248.941 32.4512 248.584 32.9457 248.34 33.5805C248.097 34.2152 247.975 34.9557 247.975 35.8021ZM259.446 41.8955V29.7086H261.819V41.8955H259.446ZM260.644 27.8282C260.232 27.8282 259.877 27.6907 259.581 27.4156C259.29 27.1353 259.145 26.802 259.145 26.4159C259.145 26.0245 259.29 25.6913 259.581 25.4162C259.877 25.1359 260.232 24.9957 260.644 24.9957C261.057 24.9957 261.409 25.1359 261.7 25.4162C261.996 25.6913 262.144 26.0245 262.144 26.4159C262.144 26.802 261.996 27.1353 261.7 27.4156C261.409 27.6907 261.057 27.8282 260.644 27.8282ZM270.263 42.1415C269.062 42.1415 268.028 41.8849 267.16 41.3719C266.298 40.8535 265.632 40.1262 265.161 39.19C264.695 38.2484 264.463 37.1456 264.463 35.8814C264.463 34.6331 264.695 33.5329 265.161 32.5808C265.632 31.6287 266.288 30.8855 267.129 30.3513C267.975 29.817 268.964 29.5499 270.096 29.5499C270.784 29.5499 271.45 29.6636 272.095 29.8911C272.741 30.1185 273.32 30.4756 273.833 30.9622C274.346 31.4488 274.751 32.0809 275.047 32.8585C275.343 33.6307 275.491 34.5696 275.491 35.6751V36.5161H265.804V34.7389H273.166C273.166 34.1147 273.04 33.562 272.786 33.0806C272.532 32.594 272.175 32.2105 271.715 31.9302C271.26 31.6498 270.725 31.5097 270.112 31.5097C269.445 31.5097 268.864 31.6736 268.366 32.0016C267.874 32.3242 267.494 32.7474 267.224 33.2711C266.959 33.7894 266.827 34.3527 266.827 34.961V36.3495C266.827 37.1641 266.97 37.857 267.256 38.4283C267.546 38.9995 267.951 39.4359 268.469 39.7374C268.988 40.0336 269.593 40.1817 270.286 40.1817C270.736 40.1817 271.146 40.1183 271.516 39.9913C271.886 39.8591 272.206 39.6634 272.476 39.4042C272.746 39.145 272.952 38.825 273.095 38.4441L275.34 38.8488C275.161 39.51 274.838 40.0892 274.372 40.5864C273.912 41.0783 273.333 41.4618 272.635 41.7368C271.942 42.0066 271.151 42.1415 270.263 42.1415ZM280.496 34.6595V41.8955H278.123V29.7086H280.4V31.6921H280.551C280.832 31.0468 281.271 30.5285 281.868 30.137C282.471 29.7456 283.23 29.5499 284.145 29.5499C284.976 29.5499 285.703 29.7245 286.327 30.0736C286.951 30.4174 287.435 30.9305 287.779 31.6128C288.123 32.2951 288.295 33.1388 288.295 34.1438V41.8955H285.923V34.4294C285.923 33.5461 285.693 32.8558 285.232 32.3586C284.772 31.8561 284.14 31.6049 283.336 31.6049C282.786 31.6049 282.297 31.7239 281.868 31.9619C281.445 32.1999 281.109 32.549 280.861 33.0092C280.617 33.4641 280.496 34.0142 280.496 34.6595ZM305.617 46.4656V39.9992H305.474C305.332 40.2584 305.125 40.5546 304.856 40.8879C304.591 41.2211 304.226 41.512 303.761 41.7606C303.295 42.0092 302.692 42.1335 301.952 42.1335C300.968 42.1335 300.09 41.8823 299.318 41.3798C298.551 40.872 297.948 40.15 297.509 39.2138C297.075 38.2722 296.858 37.1429 296.858 35.8259C296.858 34.5088 297.077 33.3821 297.517 32.4459C297.961 31.5097 298.569 30.7929 299.341 30.2957C300.114 29.7985 300.989 29.5499 301.968 29.5499C302.724 29.5499 303.332 29.6769 303.792 29.9308C304.258 30.1794 304.618 30.4703 304.871 30.8035C305.131 31.1368 305.332 31.4303 305.474 31.6842H305.673V29.7086H307.99V46.4656H305.617ZM302.475 40.1103C303.158 40.1103 303.734 39.9305 304.205 39.5708C304.681 39.2058 305.041 38.7007 305.284 38.0554C305.533 37.41 305.657 36.6589 305.657 35.8021C305.657 34.9557 305.535 34.2152 305.292 33.5805C305.049 32.9457 304.692 32.4512 304.221 32.0968C303.75 31.7424 303.168 31.5652 302.475 31.5652C301.761 31.5652 301.166 31.7503 300.69 32.1206C300.214 32.4909 299.854 32.996 299.611 33.636C299.373 34.276 299.254 34.9981 299.254 35.8021C299.254 36.6166 299.376 37.3492 299.619 37.9998C299.862 38.6504 300.222 39.1661 300.698 39.547C301.179 39.9225 301.772 40.1103 302.475 40.1103ZM318.899 36.8414V29.7086H321.279V41.8955H318.947V39.785H318.82C318.539 40.4356 318.09 40.9778 317.471 41.4115C316.857 41.84 316.093 42.0542 315.178 42.0542C314.395 42.0542 313.702 41.8823 313.099 41.5385C312.502 41.1894 312.031 40.6736 311.687 39.9913C311.348 39.309 311.179 38.4653 311.179 37.4603V29.7086H313.551V37.1747C313.551 38.0051 313.782 38.6663 314.242 39.1582C314.702 39.6501 315.3 39.8961 316.035 39.8961C316.479 39.8961 316.921 39.785 317.36 39.5629C317.804 39.3407 318.172 39.0048 318.463 38.5552C318.759 38.1056 318.904 37.5344 318.899 36.8414ZM328.014 42.1653C327.241 42.1653 326.543 42.0225 325.919 41.7368C325.295 41.4459 324.8 41.0254 324.435 40.4753C324.076 39.9252 323.896 39.2508 323.896 38.4521C323.896 37.7644 324.028 37.1985 324.292 36.7542C324.557 36.3098 324.914 35.9581 325.363 35.6989C325.813 35.4397 326.316 35.244 326.871 35.1118C327.426 34.9795 327.992 34.879 328.569 34.8103C329.299 34.7257 329.891 34.6569 330.346 34.604C330.801 34.5458 331.132 34.4532 331.338 34.3263C331.544 34.1994 331.647 33.9931 331.647 33.7074V33.6519C331.647 32.959 331.452 32.4221 331.06 32.0413C330.674 31.6604 330.098 31.47 329.331 31.47C328.532 31.47 327.902 31.6472 327.442 32.0016C326.987 32.3507 326.673 32.7395 326.498 33.1679L324.269 32.6601C324.533 31.9196 324.919 31.3219 325.427 30.867C325.94 30.4068 326.53 30.0736 327.196 29.8673C327.863 29.6557 328.564 29.5499 329.299 29.5499C329.785 29.5499 330.301 29.6081 330.846 29.7245C331.396 29.8356 331.909 30.0418 332.385 30.3433C332.867 30.6448 333.261 31.0759 333.567 31.6366C333.874 32.192 334.028 32.914 334.028 33.8026V41.8955H331.711V40.2293H331.616C331.462 40.5361 331.232 40.8376 330.925 41.1338C330.619 41.43 330.225 41.676 329.743 41.8717C329.262 42.0674 328.685 42.1653 328.014 42.1653ZM328.529 40.2611C329.185 40.2611 329.746 40.1315 330.211 39.8723C330.682 39.6131 331.039 39.2746 331.282 38.8567C331.531 38.4336 331.655 37.9813 331.655 37.5V35.929C331.571 36.0136 331.407 36.093 331.163 36.167C330.925 36.2358 330.653 36.2966 330.346 36.3495C330.039 36.3971 329.741 36.4421 329.45 36.4844C329.159 36.5214 328.915 36.5532 328.72 36.5796C328.259 36.6378 327.839 36.7356 327.458 36.8732C327.083 37.0107 326.781 37.2091 326.554 37.4682C326.331 37.7221 326.22 38.0607 326.22 38.4838C326.22 39.0709 326.437 39.5153 326.871 39.8168C327.305 40.113 327.857 40.2611 328.529 40.2611ZM339.56 25.6463V41.8955H337.187V25.6463H339.56ZM342.751 41.8955V29.7086H345.124V41.8955H342.751ZM343.949 27.8282C343.537 27.8282 343.182 27.6907 342.886 27.4156C342.595 27.1353 342.45 26.802 342.45 26.4159C342.45 26.0245 342.595 25.6913 342.886 25.4162C343.182 25.1359 343.537 24.9957 343.949 24.9957C344.362 24.9957 344.714 25.1359 345.005 25.4162C345.301 25.6913 345.449 26.0245 345.449 26.4159C345.449 26.802 345.301 27.1353 345.005 27.4156C344.714 27.6907 344.362 27.8282 343.949 27.8282ZM354.115 29.7086V31.6128H347.228V29.7086H354.115ZM349.116 41.8955V28.2963C349.116 27.5346 349.283 26.9025 349.616 26.4C349.95 25.8923 350.391 25.5141 350.941 25.2655C351.491 25.0116 352.089 24.8846 352.734 24.8846C353.21 24.8846 353.618 24.9243 353.956 25.0036C354.295 25.0777 354.546 25.1464 354.71 25.2099L354.155 27.13C354.044 27.0983 353.901 27.0612 353.726 27.0189C353.552 26.9713 353.34 26.9475 353.091 26.9475C352.515 26.9475 352.102 27.0903 351.854 27.376C351.61 27.6616 351.489 28.0742 351.489 28.6137V41.8955H349.116ZM356.563 41.8955V29.7086H358.935V41.8955H356.563ZM357.761 27.8282C357.348 27.8282 356.994 27.6907 356.698 27.4156C356.407 27.1353 356.261 26.802 356.261 26.4159C356.261 26.0245 356.407 25.6913 356.698 25.4162C356.994 25.1359 357.348 24.9957 357.761 24.9957C358.173 24.9957 358.525 25.1359 358.816 25.4162C359.112 25.6913 359.26 26.0245 359.26 26.4159C359.26 26.802 359.112 27.1353 358.816 27.4156C358.525 27.6907 358.173 27.8282 357.761 27.8282ZM367.379 42.1415C366.178 42.1415 365.144 41.8849 364.277 41.3719C363.414 40.8535 362.748 40.1262 362.277 39.19C361.812 38.2484 361.579 37.1456 361.579 35.8814C361.579 34.6331 361.812 33.5329 362.277 32.5808C362.748 31.6287 363.404 30.8855 364.245 30.3513C365.091 29.817 366.08 29.5499 367.212 29.5499C367.9 29.5499 368.566 29.6636 369.212 29.8911C369.857 30.1185 370.436 30.4756 370.949 30.9622C371.462 31.4488 371.867 32.0809 372.163 32.8585C372.459 33.6307 372.608 34.5696 372.608 35.6751V36.5161H362.92V34.7389H370.283C370.283 34.1147 370.156 33.562 369.902 33.0806C369.648 32.594 369.291 32.2105 368.831 31.9302C368.376 31.6498 367.842 31.5097 367.228 31.5097C366.562 31.5097 365.98 31.6736 365.483 32.0016C364.991 32.3242 364.61 32.7474 364.34 33.2711C364.076 33.7894 363.943 34.3527 363.943 34.961V36.3495C363.943 37.1641 364.086 37.857 364.372 38.4283C364.663 38.9995 365.067 39.4359 365.586 39.7374C366.104 40.0336 366.71 40.1817 367.403 40.1817C367.852 40.1817 368.262 40.1183 368.633 39.9913C369.003 39.8591 369.323 39.6634 369.593 39.4042C369.862 39.145 370.069 38.825 370.211 38.4441L372.457 38.8488C372.277 39.51 371.954 40.0892 371.489 40.5864C371.029 41.0783 370.449 41.4618 369.751 41.7368C369.058 42.0066 368.268 42.1415 367.379 42.1415ZM366.141 28.0821L367.998 24.4244H370.497L368.037 28.0821H366.141ZM384.372 32.6839L382.222 33.0648C382.132 32.7897 381.989 32.5279 381.793 32.2793C381.603 32.0307 381.344 31.827 381.016 31.6683C380.688 31.5097 380.278 31.4303 379.786 31.4303C379.114 31.4303 378.554 31.5811 378.104 31.8826C377.654 32.1788 377.43 32.5623 377.43 33.033C377.43 33.4403 377.58 33.7683 377.882 34.0169C378.183 34.2655 378.67 34.4691 379.342 34.6278L381.278 35.0721C382.399 35.3313 383.235 35.7306 383.785 36.2702C384.335 36.8097 384.61 37.5105 384.61 38.3727C384.61 39.1027 384.398 39.7533 383.975 40.3245C383.557 40.8905 382.973 41.3348 382.222 41.6575C381.476 41.9801 380.611 42.1415 379.627 42.1415C378.263 42.1415 377.149 41.8505 376.287 41.2687C375.425 40.6816 374.896 39.8485 374.7 38.7694L376.993 38.4203C377.136 39.018 377.43 39.4703 377.874 39.7771C378.318 40.0786 378.897 40.2293 379.611 40.2293C380.389 40.2293 381.011 40.068 381.476 39.7453C381.941 39.4174 382.174 39.018 382.174 38.5473C382.174 38.1664 382.031 37.8464 381.746 37.5872C381.465 37.3281 381.034 37.1324 380.452 37.0001L378.39 36.5479C377.252 36.2887 376.411 35.8761 375.867 35.3101C375.327 34.7442 375.057 34.0274 375.057 33.16C375.057 32.4406 375.258 31.8112 375.66 31.2716C376.062 30.7321 376.618 30.3116 377.326 30.0101C378.035 29.7033 378.847 29.5499 379.762 29.5499C381.079 29.5499 382.116 29.8356 382.872 30.4068C383.629 30.9728 384.129 31.7318 384.372 32.6839Z" fill="white"/>
<path d="M87.9172 58.4858V56.9342H98.75V58.4858H94.2081V71.3779H92.459V58.4858H87.9172ZM100.099 71.3779V60.5451H101.707V62.1813H101.82C102.017 61.6453 102.374 61.2104 102.892 60.8766C103.409 60.5428 103.992 60.3759 104.641 60.3759C104.763 60.3759 104.916 60.3782 105.099 60.3829C105.282 60.3876 105.421 60.3947 105.515 60.4041V62.0967C105.459 62.0826 105.329 62.0614 105.127 62.0332C104.93 62.0003 104.721 61.9839 104.5 61.9839C103.973 61.9839 103.503 62.0943 103.089 62.3153C102.68 62.5316 102.356 62.8325 102.116 63.2181C101.881 63.5989 101.763 64.0338 101.763 64.5228V71.3779H100.099ZM110.676 71.6318C109.989 71.6318 109.366 71.5025 108.807 71.2439C108.247 70.9806 107.803 70.6021 107.474 70.1085C107.145 69.6101 106.98 69.0083 106.98 68.303C106.98 67.6824 107.103 67.1793 107.347 66.7937C107.592 66.4035 107.918 66.0979 108.327 65.8769C108.736 65.6559 109.188 65.4914 109.682 65.3832C110.18 65.2704 110.681 65.181 111.184 65.1152C111.842 65.0306 112.376 64.9671 112.785 64.9248C113.198 64.8778 113.499 64.8002 113.687 64.6921C113.88 64.5839 113.977 64.3958 113.977 64.1278V64.0714C113.977 63.3756 113.786 62.8349 113.405 62.4493C113.029 62.0638 112.458 61.871 111.691 61.871C110.897 61.871 110.274 62.045 109.823 62.3929C109.371 62.7408 109.054 63.1123 108.87 63.5072L107.291 62.943C107.573 62.2848 107.949 61.7723 108.419 61.4055C108.894 61.0341 109.411 60.7755 109.971 60.6298C110.535 60.4793 111.09 60.4041 111.635 60.4041C111.983 60.4041 112.383 60.4464 112.834 60.531C113.29 60.6109 113.73 60.7779 114.153 61.0318C114.581 61.2856 114.936 61.6688 115.218 62.1813C115.5 62.6938 115.641 63.3803 115.641 64.2407V71.3779H113.977V69.911H113.892C113.779 70.1461 113.591 70.3976 113.328 70.6656C113.064 70.9336 112.714 71.1616 112.277 71.3497C111.84 71.5378 111.306 71.6318 110.676 71.6318ZM110.93 70.1367C111.588 70.1367 112.143 70.0074 112.594 69.7488C113.05 69.4902 113.394 69.1564 113.624 68.7473C113.859 68.3383 113.977 67.908 113.977 67.4567V65.9333C113.906 66.0179 113.751 66.0955 113.511 66.1661C113.276 66.2319 113.003 66.2906 112.693 66.3424C112.387 66.3894 112.089 66.4317 111.797 66.4693C111.51 66.5022 111.278 66.5304 111.099 66.5539C110.667 66.6104 110.262 66.7021 109.886 66.829C109.515 66.9512 109.214 67.137 108.983 67.3862C108.758 67.6306 108.645 67.9645 108.645 68.3876C108.645 68.9659 108.859 69.4032 109.287 69.6994C109.719 69.9909 110.267 70.1367 110.93 70.1367ZM118.679 71.3779V60.5451H120.343V71.3779H118.679ZM119.525 58.7397C119.201 58.7397 118.921 58.6292 118.686 58.4082C118.456 58.1872 118.34 57.9216 118.34 57.6112C118.34 57.3009 118.456 57.0353 118.686 56.8143C118.921 56.5933 119.201 56.4828 119.525 56.4828C119.85 56.4828 120.127 56.5933 120.357 56.8143C120.592 57.0353 120.71 57.3009 120.71 57.6112C120.71 57.9216 120.592 58.1872 120.357 58.4082C120.127 58.6292 119.85 58.7397 119.525 58.7397ZM128.103 60.5451V61.9556H122.489V60.5451H128.103ZM124.125 57.9498H125.79V68.2748C125.79 68.745 125.858 69.0976 125.994 69.3327C126.135 69.5631 126.314 69.7182 126.53 69.7981C126.751 69.8734 126.984 69.911 127.228 69.911C127.412 69.911 127.562 69.9016 127.68 69.8828C127.797 69.8593 127.891 69.8405 127.962 69.8264L128.3 71.3215C128.188 71.3638 128.03 71.4061 127.828 71.4485C127.626 71.4955 127.369 71.519 127.059 71.519C126.589 71.519 126.128 71.4179 125.677 71.2157C125.23 71.0135 124.859 70.7056 124.563 70.2918C124.271 69.8781 124.125 69.3562 124.125 68.7261V57.9498ZM135.032 71.6036C133.988 71.6036 133.088 71.3732 132.331 70.9125C131.579 70.447 130.998 69.7981 130.589 68.9659C130.185 68.129 129.982 67.1558 129.982 66.0462C129.982 64.9365 130.185 63.9586 130.589 63.1123C130.998 62.2613 131.567 61.5983 132.296 61.1234C133.029 60.6439 133.885 60.4041 134.863 60.4041C135.427 60.4041 135.984 60.4981 136.534 60.6862C137.084 60.8742 137.585 61.1799 138.037 61.603C138.488 62.0215 138.848 62.5763 139.116 63.2674C139.384 63.9586 139.518 64.8096 139.518 65.8205V66.5257H131.167V65.087H137.825C137.825 64.4758 137.703 63.9304 137.458 63.4508C137.218 62.9712 136.875 62.5927 136.429 62.3153C135.987 62.0379 135.465 61.8992 134.863 61.8992C134.2 61.8992 133.626 62.0638 133.142 62.3929C132.662 62.7173 132.293 63.1405 132.035 63.6624C131.776 64.1843 131.647 64.7438 131.647 65.3409V66.3001C131.647 67.1182 131.788 67.8117 132.07 68.3806C132.357 68.9448 132.754 69.375 133.262 69.6712C133.77 69.9627 134.36 70.1085 135.032 70.1085C135.469 70.1085 135.864 70.0473 136.217 69.9251C136.574 69.7981 136.882 69.6101 137.141 69.3609C137.399 69.107 137.599 68.792 137.74 68.4158L139.348 68.8672C139.179 69.4126 138.895 69.8922 138.495 70.3059C138.095 70.715 137.602 71.0347 137.014 71.2651C136.426 71.4908 135.766 71.6036 135.032 71.6036ZM142.049 71.3779V60.5451H143.657V62.1813H143.77C143.968 61.6453 144.325 61.2104 144.842 60.8766C145.359 60.5428 145.942 60.3759 146.591 60.3759C146.714 60.3759 146.866 60.3782 147.05 60.3829C147.233 60.3876 147.372 60.3947 147.466 60.4041V62.0967C147.409 62.0826 147.28 62.0614 147.078 62.0332C146.88 62.0003 146.671 61.9839 146.45 61.9839C145.924 61.9839 145.454 62.0943 145.04 62.3153C144.631 62.5316 144.306 62.8325 144.066 63.2181C143.831 63.5989 143.714 64.0338 143.714 64.5228V71.3779H142.049ZM158.212 71.6318C157.526 71.6318 156.903 71.5025 156.343 71.2439C155.784 70.9806 155.339 70.6021 155.01 70.1085C154.681 69.6101 154.517 69.0083 154.517 68.303C154.517 67.6824 154.639 67.1793 154.883 66.7937C155.128 66.4035 155.455 66.0979 155.864 65.8769C156.273 65.6559 156.724 65.4914 157.218 65.3832C157.716 65.2704 158.217 65.181 158.72 65.1152C159.378 65.0306 159.912 64.9671 160.321 64.9248C160.735 64.8778 161.036 64.8002 161.224 64.6921C161.416 64.5839 161.513 64.3958 161.513 64.1278V64.0714C161.513 63.3756 161.322 62.8349 160.942 62.4493C160.565 62.0638 159.994 61.871 159.228 61.871C158.433 61.871 157.81 62.045 157.359 62.3929C156.908 62.7408 156.59 63.1123 156.407 63.5072L154.827 62.943C155.109 62.2848 155.485 61.7723 155.955 61.4055C156.43 61.0341 156.947 60.7755 157.507 60.6298C158.071 60.4793 158.626 60.4041 159.171 60.4041C159.519 60.4041 159.919 60.4464 160.37 60.531C160.826 60.6109 161.266 60.7779 161.689 61.0318C162.117 61.2856 162.472 61.6688 162.754 62.1813C163.036 62.6938 163.177 63.3803 163.177 64.2407V71.3779H161.513V69.911H161.428C161.315 70.1461 161.127 70.3976 160.864 70.6656C160.601 70.9336 160.25 71.1616 159.813 71.3497C159.376 71.5378 158.842 71.6318 158.212 71.6318ZM158.466 70.1367C159.124 70.1367 159.679 70.0074 160.131 69.7488C160.587 69.4902 160.93 69.1564 161.16 68.7473C161.395 68.3383 161.513 67.908 161.513 67.4567V65.9333C161.442 66.0179 161.287 66.0955 161.047 66.1661C160.812 66.2319 160.54 66.2906 160.229 66.3424C159.924 66.3894 159.625 66.4317 159.334 66.4693C159.047 66.5022 158.814 66.5304 158.635 66.5539C158.203 66.6104 157.799 66.7021 157.422 66.829C157.051 66.9512 156.75 67.137 156.52 67.3862C156.294 67.6306 156.181 67.9645 156.181 68.3876C156.181 68.9659 156.395 69.4032 156.823 69.6994C157.255 69.9909 157.803 70.1367 158.466 70.1367ZM174.685 60.5451L170.679 71.3779H168.987L164.981 60.5451H166.786L169.777 69.1775H169.89L172.88 60.5451H174.685ZM181.036 71.6036C179.992 71.6036 179.092 71.3732 178.335 70.9125C177.583 70.447 177.002 69.7981 176.593 68.9659C176.189 68.129 175.987 67.1558 175.987 66.0462C175.987 64.9365 176.189 63.9586 176.593 63.1123C177.002 62.2613 177.571 61.5983 178.3 61.1234C179.033 60.6439 179.889 60.4041 180.867 60.4041C181.431 60.4041 181.988 60.4981 182.538 60.6862C183.089 60.8742 183.589 61.1799 184.041 61.603C184.492 62.0215 184.852 62.5763 185.12 63.2674C185.388 63.9586 185.522 64.8096 185.522 65.8205V66.5257H177.171V65.087H183.829C183.829 64.4758 183.707 63.9304 183.462 63.4508C183.223 62.9712 182.879 62.5927 182.433 62.3153C181.991 62.0379 181.469 61.8992 180.867 61.8992C180.204 61.8992 179.63 62.0638 179.146 62.3929C178.667 62.7173 178.297 63.1405 178.039 63.6624C177.78 64.1843 177.651 64.7438 177.651 65.3409V66.3001C177.651 67.1182 177.792 67.8117 178.074 68.3806C178.361 68.9448 178.758 69.375 179.266 69.6712C179.774 69.9627 180.364 70.1085 181.036 70.1085C181.474 70.1085 181.868 70.0473 182.221 69.9251C182.578 69.7981 182.886 69.6101 183.145 69.3609C183.404 69.107 183.603 68.792 183.744 68.4158L185.352 68.8672C185.183 69.4126 184.899 69.8922 184.499 70.3059C184.099 70.715 183.606 71.0347 183.018 71.2651C182.43 71.4908 181.77 71.6036 181.036 71.6036ZM192.454 71.6036C191.439 71.6036 190.564 71.3638 189.831 70.8842C189.097 70.4047 188.533 69.7441 188.138 68.9025C187.743 68.0609 187.546 67.0993 187.546 66.0179C187.546 64.9177 187.748 63.9468 188.152 63.1052C188.561 62.2589 189.13 61.5983 189.859 61.1234C190.593 60.6439 191.448 60.4041 192.426 60.4041C193.188 60.4041 193.874 60.5451 194.486 60.8272C195.097 61.1093 195.598 61.5043 195.988 62.0121C196.378 62.5199 196.62 63.1123 196.714 63.7893H195.05C194.923 63.2956 194.641 62.8584 194.203 62.4775C193.771 62.092 193.188 61.8992 192.454 61.8992C191.806 61.8992 191.237 62.0685 190.748 62.407C190.263 62.7408 189.885 63.2134 189.612 63.8246C189.344 64.4311 189.21 65.1434 189.21 65.9615C189.21 66.7984 189.342 67.5272 189.605 68.1478C189.873 68.7685 190.249 69.2504 190.734 69.5936C191.223 69.9368 191.796 70.1085 192.454 70.1085C192.887 70.1085 193.28 70.0332 193.632 69.8828C193.985 69.7323 194.283 69.516 194.528 69.2339C194.772 68.9518 194.946 68.6133 195.05 68.2184H196.714C196.62 68.8578 196.387 69.4338 196.016 69.9463C195.649 70.454 195.163 70.8584 194.556 71.1593C193.954 71.4555 193.254 71.6036 192.454 71.6036ZM212.406 62.9712L210.911 63.3944C210.817 63.1452 210.678 62.903 210.495 62.668C210.316 62.4282 210.072 62.2307 209.762 62.0755C209.451 61.9204 209.054 61.8428 208.57 61.8428C207.907 61.8428 207.354 61.9956 206.912 62.3012C206.475 62.6021 206.256 62.9853 206.256 63.4508C206.256 63.8646 206.407 64.1913 206.708 64.4311C207.009 64.6709 207.479 64.8707 208.118 65.0306L209.726 65.4255C210.695 65.6606 211.417 66.0203 211.891 66.5046C212.366 66.9842 212.604 67.6024 212.604 68.3594C212.604 68.98 212.425 69.5348 212.068 70.0238C211.715 70.5128 211.221 70.8984 210.587 71.1805C209.952 71.4626 209.214 71.6036 208.372 71.6036C207.267 71.6036 206.353 71.3638 205.629 70.8842C204.905 70.4047 204.446 69.7041 204.253 68.7826L205.833 68.3876C205.984 68.9706 206.268 69.4079 206.687 69.6994C207.11 69.9909 207.662 70.1367 208.344 70.1367C209.12 70.1367 209.736 69.9721 210.192 69.643C210.652 69.3092 210.883 68.9095 210.883 68.444C210.883 68.0679 210.751 67.7529 210.488 67.499C210.225 67.2404 209.82 67.0476 209.275 66.9207L207.469 66.4975C206.477 66.2624 205.749 65.8981 205.283 65.4044C204.822 64.906 204.592 64.283 204.592 63.5354C204.592 62.9242 204.764 62.3835 205.107 61.9133C205.455 61.4432 205.927 61.0741 206.524 60.8061C207.126 60.5381 207.808 60.4041 208.57 60.4041C209.642 60.4041 210.483 60.6392 211.094 61.1093C211.71 61.5795 212.148 62.2001 212.406 62.9712ZM219.51 71.6036C218.532 71.6036 217.674 71.3709 216.936 70.9054C216.202 70.4399 215.629 69.7887 215.215 68.9518C214.806 68.1149 214.601 67.137 214.601 66.0179C214.601 64.8895 214.806 63.9045 215.215 63.0629C215.629 62.2213 216.202 61.5678 216.936 61.1023C217.674 60.6368 218.532 60.4041 219.51 60.4041C220.488 60.4041 221.344 60.6368 222.077 61.1023C222.815 61.5678 223.389 62.2213 223.798 63.0629C224.212 63.9045 224.419 64.8895 224.419 66.0179C224.419 67.137 224.212 68.1149 223.798 68.9518C223.389 69.7887 222.815 70.4399 222.077 70.9054C221.344 71.3709 220.488 71.6036 219.51 71.6036ZM219.51 70.1085C220.253 70.1085 220.864 69.918 221.344 69.5372C221.823 69.1564 222.178 68.6556 222.409 68.035C222.639 67.4144 222.754 66.742 222.754 66.0179C222.754 65.2939 222.639 64.6192 222.409 63.9939C222.178 63.3685 221.823 62.8631 221.344 62.4775C220.864 62.092 220.253 61.8992 219.51 61.8992C218.767 61.8992 218.156 62.092 217.676 62.4775C217.197 62.8631 216.842 63.3685 216.611 63.9939C216.381 64.6192 216.266 65.2939 216.266 66.0179C216.266 66.742 216.381 67.4144 216.611 68.035C216.842 68.6556 217.197 69.1564 217.676 69.5372C218.156 69.918 218.767 70.1085 219.51 70.1085ZM226.959 71.3779V60.5451H228.624V71.3779H226.959ZM227.806 58.7397C227.481 58.7397 227.201 58.6292 226.966 58.4082C226.736 58.1872 226.621 57.9216 226.621 57.6112C226.621 57.3009 226.736 57.0353 226.966 56.8143C227.201 56.5933 227.481 56.4828 227.806 56.4828C228.13 56.4828 228.407 56.5933 228.638 56.8143C228.873 57.0353 228.99 57.3009 228.99 57.6112C228.99 57.9216 228.873 58.1872 228.638 58.4082C228.407 58.6292 228.13 58.7397 227.806 58.7397ZM233.337 64.8613V71.3779H231.672V60.5451H233.28V62.2378H233.421C233.675 61.6876 234.061 61.2457 234.578 60.9119C235.095 60.5733 235.763 60.4041 236.581 60.4041C237.314 60.4041 237.956 60.5545 238.506 60.8554C239.056 61.1517 239.484 61.603 239.79 62.2095C240.095 62.8114 240.248 63.573 240.248 64.4946V71.3779H238.584V64.6074C238.584 63.7564 238.363 63.0935 237.921 62.6186C237.479 62.139 236.872 61.8992 236.101 61.8992C235.57 61.8992 235.095 62.0144 234.677 62.2448C234.263 62.4752 233.936 62.8114 233.696 63.2533C233.457 63.6953 233.337 64.2313 233.337 64.8613Z" fill="white" fill-opacity="0.6"/>
</g>
<defs>
<filter id="filter0_bd_1_1202" x="-7.37762" y="-12.3776" width="425.608" height="124.028" filterUnits="userSpaceOnUse" color-interpolation-filters="sRGB">
<feFlood flood-opacity="0" result="BackgroundImageFix"/>
<feGaussianBlur in="BackgroundImageFix" stdDeviation="8.68881"/>
<feComposite in2="SourceAlpha" operator="in" result="effect1_backgroundBlur_1_1202"/>
<feColorMatrix in="SourceAlpha" type="matrix" values="0 0 0 0 0 0 0 0 0 0 0 0 0 0 0 0 0 0 127 0" result="hardAlpha"/>
<feOffset dy="4.96503"/>
<feGaussianBlur stdDeviation="4.96503"/>
<feComposite in2="hardAlpha" operator="out"/>
<feColorMatrix type="matrix" values="0 0 0 0 0.329412 0 0 0 0 0.72549 0 0 0 0 0.929412 0 0 0 0.1 0"/>
<feBlend mode="normal" in2="effect1_backgroundBlur_1_1202" result="effect2_dropShadow_1_1202"/>
<feBlend mode="normal" in="SourceGraphic" in2="effect2_dropShadow_1_1202" result="shape"/>
</filter>
</defs>
</svg>
