<svg width="404" height="131" viewBox="0 0 404 131" fill="none" xmlns="http://www.w3.org/2000/svg">
<g filter="url(#filter0_bd_1_1195)">
<rect x="11.9722" y="6" width="379.972" height="106.639" rx="14.8611" fill="black" fill-opacity="0.5" shape-rendering="crispEdges"/>
<path d="M70.7664 59.3193C70.7664 59.8366 70.5609 60.3327 70.1951 60.6985C69.8294 61.0643 69.3332 61.2698 68.8159 61.2698H53.2118C52.6944 61.2698 52.1983 61.0643 51.8325 60.6985C51.4667 60.3327 51.2612 59.8366 51.2612 59.3193C51.2612 58.8019 51.4667 58.3058 51.8325 57.94C52.1983 57.5742 52.6944 57.3687 53.2118 57.3687H68.8159C69.3332 57.3687 69.8294 57.5742 70.1951 57.94C70.5609 58.3058 70.7664 58.8019 70.7664 59.3193ZM68.8159 65.1708H53.2118C52.6944 65.1708 52.1983 65.3763 51.8325 65.7421C51.4667 66.1079 51.2612 66.604 51.2612 67.1213C51.2612 67.6386 51.4667 68.1348 51.8325 68.5006C52.1983 68.8664 52.6944 69.0719 53.2118 69.0719H68.8159C69.3332 69.0719 69.8294 68.8664 70.1951 68.5006C70.5609 68.1348 70.7664 67.6386 70.7664 67.1213C70.7664 66.604 70.5609 66.1079 70.1951 65.7421C69.8294 65.3763 69.3332 65.1708 68.8159 65.1708ZM82.4696 39.814V76.8739C82.4696 78.9432 81.6476 80.9277 80.1844 82.3908C78.7212 83.854 76.7367 84.676 74.6675 84.676H47.3602C45.2909 84.676 43.3065 83.854 41.8433 82.3908C40.3801 80.9277 39.5581 78.9432 39.5581 76.8739V39.814C39.5581 38.7794 39.9691 37.7872 40.7007 37.0556C41.4323 36.324 42.4245 35.913 43.4591 35.913H47.3602V33.9625C47.3602 33.4452 47.5657 32.9491 47.9315 32.5833C48.2973 32.2175 48.7934 32.012 49.3107 32.012C49.828 32.012 50.3241 32.2175 50.6899 32.5833C51.0557 32.9491 51.2612 33.4452 51.2612 33.9625V35.913H59.0633V33.9625C59.0633 33.4452 59.2688 32.9491 59.6346 32.5833C60.0004 32.2175 60.4965 32.012 61.0138 32.012C61.5311 32.012 62.0273 32.2175 62.3931 32.5833C62.7589 32.9491 62.9644 33.4452 62.9644 33.9625V35.913H70.7664V33.9625C70.7664 33.4452 70.9719 32.9491 71.3377 32.5833C71.7035 32.2175 72.1996 32.012 72.717 32.012C73.2343 32.012 73.7304 32.2175 74.0962 32.5833C74.462 32.9491 74.6675 33.4452 74.6675 33.9625V35.913H78.5685C79.6031 35.913 80.5954 36.324 81.327 37.0556C82.0586 37.7872 82.4696 38.7794 82.4696 39.814ZM78.5685 39.814H74.6675V41.7646C74.6675 42.2819 74.462 42.778 74.0962 43.1438C73.7304 43.5096 73.2343 43.7151 72.717 43.7151C72.1996 43.7151 71.7035 43.5096 71.3377 43.1438C70.9719 42.778 70.7664 42.2819 70.7664 41.7646V39.814H62.9644V41.7646C62.9644 42.2819 62.7589 42.778 62.3931 43.1438C62.0273 43.5096 61.5311 43.7151 61.0138 43.7151C60.4965 43.7151 60.0004 43.5096 59.6346 43.1438C59.2688 42.778 59.0633 42.2819 59.0633 41.7646V39.814H51.2612V41.7646C51.2612 42.2819 51.0557 42.778 50.6899 43.1438C50.3241 43.5096 49.828 43.7151 49.3107 43.7151C48.7934 43.7151 48.2973 43.5096 47.9315 43.1438C47.5657 42.778 47.3602 42.2819 47.3602 41.7646V39.814H43.4591V76.8739C43.4591 77.9086 43.8701 78.9008 44.6017 79.6324C45.3333 80.364 46.3256 80.775 47.3602 80.775H74.6675C75.7021 80.775 76.6943 80.364 77.4259 79.6324C78.1575 78.9008 78.5685 77.9086 78.5685 76.8739V39.814Z" fill="white"/>
<path d="M106.323 49.8333V30.3787H113.258C114.771 30.3787 116.025 30.6542 117.019 31.2051C118.014 31.7561 118.758 32.5097 119.252 33.466C119.746 34.4159 119.993 35.4862 119.993 36.6767C119.993 37.8736 119.742 38.9502 119.242 39.9065C118.748 40.8564 118.001 41.61 117 42.1673C116.006 42.7183 114.755 42.9938 113.248 42.9938H108.479V40.5049H112.982C113.938 40.5049 114.714 40.3403 115.309 40.011C115.905 39.6753 116.342 39.2194 116.62 38.6431C116.899 38.0668 117.038 37.4113 117.038 36.6767C117.038 35.9421 116.899 35.2898 116.62 34.7199C116.342 34.1499 115.902 33.7035 115.3 33.3805C114.705 33.0575 113.919 32.896 112.944 32.896H109.258V49.8333H106.323ZM123.206 49.8333V35.2423H125.951V37.5602H126.103C126.369 36.7749 126.838 36.1574 127.509 35.7078C128.187 35.2518 128.953 35.0239 129.808 35.0239C129.985 35.0239 130.194 35.0302 130.435 35.0429C130.682 35.0555 130.875 35.0714 131.014 35.0904V37.8072C130.9 37.7755 130.698 37.7407 130.406 37.7027C130.115 37.6583 129.824 37.6362 129.532 37.6362C128.861 37.6362 128.263 37.7787 127.737 38.0636C127.218 38.3423 126.806 38.7317 126.502 39.232C126.198 39.726 126.046 40.2896 126.046 40.9229V49.8333H123.206ZM139.238 50.1277C137.801 50.1277 136.563 49.8206 135.524 49.2063C134.492 48.5857 133.694 47.7149 133.13 46.594C132.573 45.4667 132.294 44.1463 132.294 42.6328C132.294 41.1382 132.573 39.821 133.13 38.6811C133.694 37.5412 134.479 36.6514 135.486 36.0118C136.499 35.3722 137.683 35.0524 139.039 35.0524C139.862 35.0524 140.66 35.1885 141.433 35.4608C142.205 35.7331 142.899 36.1606 143.513 36.7432C144.127 37.3259 144.612 38.0826 144.966 39.0136C145.321 39.9382 145.498 41.0622 145.498 42.3858V43.3927H133.9V41.2649H142.715C142.715 40.5176 142.563 39.8558 142.259 39.2795C141.955 38.6969 141.528 38.2378 140.977 37.9021C140.432 37.5665 139.792 37.3987 139.058 37.3987C138.26 37.3987 137.563 37.595 136.968 37.9876C136.379 38.3739 135.923 38.8806 135.6 39.5075C135.283 40.1281 135.125 40.8026 135.125 41.5309V43.1932C135.125 44.1685 135.296 44.9981 135.638 45.6821C135.986 46.366 136.471 46.8885 137.091 47.2494C137.712 47.6041 138.437 47.7814 139.267 47.7814C139.805 47.7814 140.296 47.7054 140.739 47.5534C141.182 47.3951 141.566 47.1608 141.888 46.8505C142.211 46.5402 142.458 46.157 142.629 45.7011L145.318 46.1855C145.102 46.9771 144.716 47.6706 144.159 48.2659C143.608 48.8548 142.914 49.314 142.078 49.6433C141.249 49.9662 140.302 50.1277 139.238 50.1277ZM151.49 41.1699V49.8333H148.65V35.2423H151.376V37.6172H151.556C151.892 36.8446 152.418 36.2239 153.133 35.7553C153.855 35.2867 154.764 35.0524 155.86 35.0524C156.854 35.0524 157.725 35.2613 158.472 35.6793C159.219 36.0909 159.799 36.7052 160.21 37.5222C160.622 38.3391 160.828 39.3492 160.828 40.5524V49.8333H157.987V40.8944C157.987 39.8368 157.712 39.0104 157.161 38.4151C156.61 37.8135 155.853 37.5127 154.891 37.5127C154.232 37.5127 153.646 37.6552 153.133 37.9401C152.627 38.2251 152.225 38.6431 151.927 39.194C151.636 39.7387 151.49 40.3973 151.49 41.1699ZM170.099 50.1182C168.921 50.1182 167.87 49.8174 166.945 49.2158C166.027 48.6078 165.305 47.7434 164.779 46.6225C164.26 45.4952 164 44.1432 164 42.5663C164 40.9894 164.263 39.6405 164.789 38.5196C165.321 37.3987 166.049 36.5406 166.974 35.9453C167.898 35.35 168.946 35.0524 170.118 35.0524C171.024 35.0524 171.752 35.2043 172.303 35.5083C172.86 35.806 173.291 36.1543 173.595 36.5532C173.905 36.9522 174.146 37.3037 174.317 37.6077H174.488V30.3787H177.328V49.8333H174.554V47.5629H174.317C174.146 47.8732 173.899 48.2279 173.576 48.6268C173.259 49.0258 172.822 49.3741 172.265 49.6718C171.708 49.9694 170.986 50.1182 170.099 50.1182ZM170.726 47.6959C171.543 47.6959 172.233 47.4806 172.797 47.05C173.367 46.613 173.797 46.0082 174.089 45.2356C174.386 44.463 174.535 43.5637 174.535 42.5378C174.535 41.5245 174.39 40.6379 174.098 39.878C173.807 39.1181 173.379 38.5259 172.816 38.1016C172.252 37.6773 171.556 37.4652 170.726 37.4652C169.871 37.4652 169.159 37.6868 168.589 38.1301C168.019 38.5734 167.588 39.1782 167.297 39.9445C167.012 40.7108 166.869 41.5752 166.869 42.5378C166.869 43.5131 167.015 44.3902 167.306 45.1691C167.598 45.948 168.028 46.5655 168.598 47.0215C169.174 47.4711 169.884 47.6959 170.726 47.6959ZM181.382 49.8333V35.2423H184.127V37.5602H184.279C184.545 36.7749 185.014 36.1574 185.685 35.7078C186.363 35.2518 187.129 35.0239 187.984 35.0239C188.161 35.0239 188.37 35.0302 188.611 35.0429C188.858 35.0555 189.051 35.0714 189.19 35.0904V37.8072C189.076 37.7755 188.874 37.7407 188.582 37.7027C188.291 37.6583 188 37.6362 187.708 37.6362C187.037 37.6362 186.439 37.7787 185.913 38.0636C185.394 38.3423 184.982 38.7317 184.678 39.232C184.374 39.726 184.222 40.2896 184.222 40.9229V49.8333H181.382ZM197.414 50.1277C195.977 50.1277 194.739 49.8206 193.7 49.2063C192.668 48.5857 191.87 47.7149 191.306 46.594C190.749 45.4667 190.47 44.1463 190.47 42.6328C190.47 41.1382 190.749 39.821 191.306 38.6811C191.87 37.5412 192.655 36.6514 193.662 36.0118C194.675 35.3722 195.859 35.0524 197.215 35.0524C198.038 35.0524 198.836 35.1885 199.609 35.4608C200.381 35.7331 201.075 36.1606 201.689 36.7432C202.303 37.3259 202.788 38.0826 203.142 39.0136C203.497 39.9382 203.674 41.0622 203.674 42.3858V43.3927H192.076V41.2649H200.891C200.891 40.5176 200.739 39.8558 200.435 39.2795C200.131 38.6969 199.704 38.2378 199.153 37.9021C198.608 37.5665 197.968 37.3987 197.234 37.3987C196.436 37.3987 195.739 37.595 195.144 37.9876C194.555 38.3739 194.099 38.8806 193.776 39.5075C193.459 40.1281 193.301 40.8026 193.301 41.5309V43.1932C193.301 44.1685 193.472 44.9981 193.814 45.6821C194.162 46.366 194.647 46.8885 195.267 47.2494C195.888 47.6041 196.613 47.7814 197.443 47.7814C197.981 47.7814 198.472 47.7054 198.915 47.5534C199.358 47.3951 199.742 47.1608 200.065 46.8505C200.387 46.5402 200.634 46.157 200.805 45.7011L203.494 46.1855C203.278 46.9771 202.892 47.6706 202.335 48.2659C201.784 48.8548 201.09 49.314 200.254 49.6433C199.425 49.9662 198.478 50.1277 197.414 50.1277ZM213.905 49.8333V35.2423H216.65V37.5602H216.802C217.068 36.7749 217.537 36.1574 218.208 35.7078C218.886 35.2518 219.652 35.0239 220.507 35.0239C220.684 35.0239 220.893 35.0302 221.134 35.0429C221.381 35.0555 221.574 35.0714 221.713 35.0904V37.8072C221.599 37.7755 221.397 37.7407 221.105 37.7027C220.814 37.6583 220.523 37.6362 220.231 37.6362C219.56 37.6362 218.962 37.7787 218.436 38.0636C217.917 38.3423 217.505 38.7317 217.201 39.232C216.897 39.726 216.745 40.2896 216.745 40.9229V49.8333H213.905ZM229.937 50.1277C228.5 50.1277 227.262 49.8206 226.223 49.2063C225.191 48.5857 224.393 47.7149 223.829 46.594C223.272 45.4667 222.993 44.1463 222.993 42.6328C222.993 41.1382 223.272 39.821 223.829 38.6811C224.393 37.5412 225.178 36.6514 226.185 36.0118C227.198 35.3722 228.383 35.0524 229.738 35.0524C230.561 35.0524 231.359 35.1885 232.132 35.4608C232.904 35.7331 233.598 36.1606 234.212 36.7432C234.826 37.3259 235.311 38.0826 235.665 39.0136C236.02 39.9382 236.197 41.0622 236.197 42.3858V43.3927H224.599V41.2649H233.414C233.414 40.5176 233.262 39.8558 232.958 39.2795C232.654 38.6969 232.227 38.2378 231.676 37.9021C231.131 37.5665 230.492 37.3987 229.757 37.3987C228.959 37.3987 228.262 37.595 227.667 37.9876C227.078 38.3739 226.622 38.8806 226.299 39.5075C225.983 40.1281 225.824 40.8026 225.824 41.5309V43.1932C225.824 44.1685 225.995 44.9981 226.337 45.6821C226.685 46.366 227.17 46.8885 227.791 47.2494C228.411 47.6041 229.136 47.7814 229.966 47.7814C230.504 47.7814 230.995 47.7054 231.438 47.5534C231.882 47.3951 232.265 47.1608 232.588 46.8505C232.911 46.5402 233.158 46.157 233.329 45.7011L236.017 46.1855C235.802 46.9771 235.415 47.6706 234.858 48.2659C234.307 48.8548 233.614 49.314 232.778 49.6433C231.948 49.9662 231.001 50.1277 229.937 50.1277ZM242.189 41.1699V49.8333H239.349V35.2423H242.075V37.6172H242.256C242.591 36.8446 243.117 36.2239 243.832 35.7553C244.554 35.2867 245.463 35.0524 246.559 35.0524C247.553 35.0524 248.424 35.2613 249.171 35.6793C249.918 36.0909 250.498 36.7052 250.909 37.5222C251.321 38.3391 251.527 39.3492 251.527 40.5524V49.8333H248.687V40.8944C248.687 39.8368 248.411 39.0104 247.86 38.4151C247.309 37.8135 246.552 37.5127 245.59 37.5127C244.931 37.5127 244.345 37.6552 243.832 37.9401C243.326 38.2251 242.924 38.6431 242.626 39.194C242.335 39.7387 242.189 40.3973 242.189 41.1699ZM260.798 50.1182C259.62 50.1182 258.569 49.8174 257.644 49.2158C256.726 48.6078 256.004 47.7434 255.479 46.6225C254.959 45.4952 254.7 44.1432 254.7 42.5663C254.7 40.9894 254.962 39.6405 255.488 38.5196C256.02 37.3987 256.748 36.5406 257.673 35.9453C258.598 35.35 259.646 35.0524 260.817 35.0524C261.723 35.0524 262.451 35.2043 263.002 35.5083C263.559 35.806 263.99 36.1543 264.294 36.5532C264.604 36.9522 264.845 37.3037 265.016 37.6077H265.187V30.3787H268.027V49.8333H265.253V47.5629H265.016C264.845 47.8732 264.598 48.2279 264.275 48.6268C263.958 49.0258 263.521 49.3741 262.964 49.6718C262.407 49.9694 261.685 50.1182 260.798 50.1182ZM261.425 47.6959C262.242 47.6959 262.932 47.4806 263.496 47.05C264.066 46.613 264.497 46.0082 264.788 45.2356C265.086 44.463 265.234 43.5637 265.234 42.5378C265.234 41.5245 265.089 40.6379 264.797 39.878C264.506 39.1181 264.079 38.5259 263.515 38.1016C262.951 37.6773 262.255 37.4652 261.425 37.4652C260.57 37.4652 259.858 37.6868 259.288 38.1301C258.718 38.5734 258.287 39.1782 257.996 39.9445C257.711 40.7108 257.568 41.5752 257.568 42.5378C257.568 43.5131 257.714 44.3902 258.005 45.1691C258.297 45.948 258.727 46.5655 259.297 47.0215C259.874 47.4711 260.583 47.6959 261.425 47.6959ZM278.37 50.1277C276.932 50.1277 275.694 49.8206 274.655 49.2063C273.623 48.5857 272.825 47.7149 272.261 46.594C271.704 45.4667 271.426 44.1463 271.426 42.6328C271.426 41.1382 271.704 39.821 272.261 38.6811C272.825 37.5412 273.61 36.6514 274.617 36.0118C275.631 35.3722 276.815 35.0524 278.17 35.0524C278.993 35.0524 279.791 35.1885 280.564 35.4608C281.336 35.7331 282.03 36.1606 282.644 36.7432C283.258 37.3259 283.743 38.0826 284.098 39.0136C284.452 39.9382 284.63 41.0622 284.63 42.3858V43.3927H273.031V41.2649H281.846C281.846 40.5176 281.694 39.8558 281.39 39.2795C281.086 38.6969 280.659 38.2378 280.108 37.9021C279.563 37.5665 278.924 37.3987 278.189 37.3987C277.391 37.3987 276.694 37.595 276.099 37.9876C275.51 38.3739 275.054 38.8806 274.731 39.5075C274.415 40.1281 274.256 40.8026 274.256 41.5309V43.1932C274.256 44.1685 274.427 44.9981 274.769 45.6821C275.118 46.366 275.602 46.8885 276.223 47.2494C276.843 47.6041 277.568 47.7814 278.398 47.7814C278.936 47.7814 279.427 47.7054 279.87 47.5534C280.314 47.3951 280.697 47.1608 281.02 46.8505C281.343 46.5402 281.59 46.157 281.761 45.7011L284.449 46.1855C284.234 46.9771 283.847 47.6706 283.29 48.2659C282.739 48.8548 282.046 49.314 281.21 49.6433C280.38 49.9662 279.433 50.1277 278.37 50.1277ZM287.477 49.8333V47.8859L295.38 37.8451V37.7122H287.733V35.2423H298.924V37.3132L291.324 47.2304V47.3634H299.19V49.8333H287.477ZM311.137 40.3815V42.8418H302.512V40.3815H311.137ZM327.405 35.2423L322.114 49.8333H319.074L313.773 35.2423H316.823L320.518 46.4705H320.67L324.356 35.2423H327.405ZM335.724 50.1277C334.356 50.1277 333.162 49.8143 332.143 49.1873C331.123 48.5603 330.331 47.6832 329.768 46.556C329.204 45.4287 328.922 44.1115 328.922 42.6043C328.922 41.0907 329.204 39.7672 329.768 38.6336C330.331 37.5 331.123 36.6197 332.143 35.9928C333.162 35.3658 334.356 35.0524 335.724 35.0524C337.092 35.0524 338.285 35.3658 339.305 35.9928C340.325 36.6197 341.116 37.5 341.68 38.6336C342.244 39.7672 342.525 41.0907 342.525 42.6043C342.525 44.1115 342.244 45.4287 341.68 46.556C341.116 47.6832 340.325 48.5603 339.305 49.1873C338.285 49.8143 337.092 50.1277 335.724 50.1277ZM335.733 47.7434C336.62 47.7434 337.355 47.5091 337.937 47.0405C338.52 46.5718 338.95 45.948 339.229 45.1691C339.514 44.3902 339.657 43.5321 339.657 42.5948C339.657 41.6639 339.514 40.8089 339.229 40.03C338.95 39.2447 338.52 38.6146 337.937 38.1396C337.355 37.6647 336.62 37.4272 335.733 37.4272C334.84 37.4272 334.099 37.6647 333.511 38.1396C332.928 38.6146 332.494 39.2447 332.209 40.03C331.93 40.8089 331.791 41.6639 331.791 42.5948C331.791 43.5321 331.93 44.3902 332.209 45.1691C332.494 45.948 332.928 46.5718 333.511 47.0405C334.099 47.5091 334.84 47.7434 335.733 47.7434ZM354.939 43.7822V35.2423H357.788V49.8333H354.996V47.3064H354.844C354.508 48.0854 353.97 48.7345 353.229 49.2538C352.494 49.7668 351.579 50.0232 350.483 50.0232C349.546 50.0232 348.717 49.8174 347.995 49.4058C347.279 48.9878 346.715 48.3704 346.304 47.5534C345.898 46.7365 345.696 45.7264 345.696 44.5231V35.2423H348.536V44.1812C348.536 45.1754 348.812 45.967 349.362 46.556C349.913 47.145 350.629 47.4394 351.509 47.4394C352.041 47.4394 352.57 47.3064 353.096 47.0405C353.628 46.7745 354.068 46.3723 354.416 45.8341C354.771 45.2958 354.945 44.6118 354.939 43.7822ZM372.538 38.8046L369.964 39.2605C369.856 38.9312 369.685 38.6178 369.451 38.3201C369.223 38.0225 368.913 37.7787 368.52 37.5887C368.128 37.3987 367.637 37.3037 367.048 37.3037C366.243 37.3037 365.572 37.4842 365.034 37.8451C364.496 38.1998 364.226 38.6589 364.226 39.2225C364.226 39.7102 364.407 40.1028 364.768 40.4005C365.129 40.6981 365.712 40.9419 366.516 41.1319L368.834 41.6639C370.176 41.9742 371.177 42.4523 371.835 43.0983C372.494 43.7442 372.823 44.5833 372.823 45.6156C372.823 46.4895 372.57 47.2684 372.063 47.9524C371.563 48.63 370.863 49.162 369.964 49.5483C369.071 49.9346 368.036 50.1277 366.858 50.1277C365.224 50.1277 363.891 49.7794 362.859 49.0828C361.826 48.3799 361.193 47.3824 360.959 46.0905L363.704 45.6726C363.875 46.3882 364.226 46.9296 364.758 47.2969C365.29 47.6579 365.984 47.8384 366.839 47.8384C367.77 47.8384 368.514 47.6452 369.071 47.2589C369.628 46.8663 369.907 46.3882 369.907 45.8246C369.907 45.3686 369.736 44.9854 369.394 44.6751C369.058 44.3648 368.542 44.1305 367.846 43.9722L365.376 43.4307C364.014 43.1204 363.007 42.6265 362.355 41.9488C361.709 41.2712 361.386 40.4131 361.386 39.3745C361.386 38.5133 361.627 37.7597 362.108 37.1137C362.589 36.4678 363.254 35.9643 364.103 35.6033C364.952 35.236 365.924 35.0524 367.019 35.0524C368.596 35.0524 369.837 35.3943 370.743 36.0783C371.649 36.7559 372.247 37.6647 372.538 38.8046Z" fill="white"/>
<path d="M106.205 85.8054V68.5125H112.049C113.4 68.5125 114.508 68.7433 115.375 69.2049C116.242 69.6608 116.884 70.2885 117.301 71.0879C117.717 71.8872 117.925 72.7963 117.925 73.8152C117.925 74.8341 117.717 75.7376 117.301 76.5257C116.884 77.3138 116.245 77.933 115.384 78.3833C114.523 78.828 113.422 79.0504 112.082 79.0504H107.354V77.159H112.015C112.938 77.159 113.681 77.0239 114.244 76.7537C114.812 76.4835 115.223 76.1007 115.477 75.6053C115.736 75.1043 115.865 74.5076 115.865 73.8152C115.865 73.1228 115.736 72.5177 115.477 71.9998C115.218 71.4819 114.804 71.0822 114.235 70.8008C113.667 70.5137 112.915 70.3701 111.981 70.3701H108.299V85.8054H106.205ZM114.345 78.0371L118.601 85.8054H116.169L111.981 78.0371H114.345ZM126.443 86.0756C125.193 86.0756 124.115 85.7998 123.209 85.2481C122.308 84.6908 121.613 83.914 121.124 82.9176C120.639 81.9156 120.397 80.7504 120.397 79.4219C120.397 78.0934 120.639 76.9225 121.124 75.9093C121.613 74.8904 122.294 74.0967 123.167 73.5281C124.045 72.9539 125.07 72.6668 126.24 72.6668C126.916 72.6668 127.583 72.7794 128.242 73.0046C128.9 73.2298 129.5 73.5957 130.04 74.1023C130.581 74.6033 131.011 75.2675 131.332 76.095C131.653 76.9225 131.813 77.9414 131.813 79.1517V79.9961H121.816V78.2735H129.787C129.787 77.5417 129.64 76.8888 129.348 76.3146C129.061 75.7404 128.65 75.2872 128.115 74.9551C127.586 74.623 126.961 74.4569 126.24 74.4569C125.447 74.4569 124.76 74.654 124.18 75.048C123.606 75.4364 123.164 75.943 122.854 76.5679C122.545 77.1927 122.39 77.8626 122.39 78.5775V79.7259C122.39 80.7054 122.559 81.5357 122.897 82.2168C123.24 82.8923 123.716 83.4074 124.324 83.762C124.932 84.111 125.638 84.2855 126.443 84.2855C126.967 84.2855 127.439 84.2124 127.862 84.066C128.289 83.914 128.658 83.6888 128.968 83.3905C129.277 83.0865 129.517 82.7094 129.686 82.259L131.611 82.7994C131.408 83.4524 131.067 84.0266 130.589 84.522C130.111 85.0117 129.519 85.3945 128.816 85.6703C128.112 85.9405 127.321 86.0756 126.443 86.0756ZM136.837 78.0033V85.8054H134.845V72.8357H136.77V74.8622H136.939C137.243 74.2036 137.704 73.6745 138.324 73.2748C138.943 72.8695 139.742 72.6668 140.722 72.6668C141.6 72.6668 142.368 72.847 143.027 73.2073C143.685 73.5619 144.198 74.1023 144.564 74.8285C144.929 75.549 145.112 76.4609 145.112 77.5643V85.8054H143.12V77.6994C143.12 76.6805 142.855 75.8868 142.326 75.3182C141.797 74.744 141.071 74.4569 140.147 74.4569C139.511 74.4569 138.943 74.5949 138.442 74.8707C137.946 75.1465 137.555 75.549 137.268 76.0781C136.981 76.6073 136.837 77.249 136.837 78.0033ZM153.651 86.0756C152.57 86.0756 151.616 85.8026 150.789 85.2566C149.961 84.7049 149.314 83.9281 148.847 82.9261C148.379 81.9185 148.146 80.7279 148.146 79.3543C148.146 77.9921 148.379 76.8099 148.847 75.8079C149.314 74.8059 149.964 74.0319 150.797 73.4859C151.63 72.9399 152.593 72.6668 153.685 72.6668C154.529 72.6668 155.196 72.8076 155.686 73.089C156.182 73.3649 156.559 73.6801 156.818 74.0347C157.082 74.3838 157.288 74.6708 157.434 74.896H157.603V68.5125H159.596V85.8054H157.67V83.8127H157.434C157.288 84.0491 157.079 84.3475 156.809 84.7077C156.539 85.0624 156.153 85.3804 155.652 85.6619C155.151 85.9377 154.484 86.0756 153.651 86.0756ZM153.921 84.2855C154.721 84.2855 155.396 84.0773 155.948 83.6607C156.5 83.2385 156.919 82.6559 157.206 81.9128C157.493 81.1641 157.637 80.3001 157.637 79.3206C157.637 78.3523 157.496 77.5052 157.214 76.779C156.933 76.0472 156.516 75.4786 155.965 75.0733C155.413 74.6624 154.732 74.4569 153.921 74.4569C153.077 74.4569 152.373 74.6737 151.81 75.1071C151.253 75.5349 150.834 76.1176 150.552 76.855C150.276 77.5868 150.139 78.4086 150.139 79.3206C150.139 80.2438 150.279 81.0825 150.561 81.8368C150.848 82.5855 151.27 83.1822 151.827 83.6269C152.39 84.066 153.088 84.2855 153.921 84.2855ZM168.96 86.0756C167.71 86.0756 166.632 85.7998 165.726 85.2481C164.825 84.6908 164.13 83.914 163.64 82.9176C163.156 81.9156 162.914 80.7504 162.914 79.4219C162.914 78.0934 163.156 76.9225 163.64 75.9093C164.13 74.8904 164.811 74.0967 165.684 73.5281C166.562 72.9539 167.586 72.6668 168.757 72.6668C169.433 72.6668 170.1 72.7794 170.758 73.0046C171.417 73.2298 172.016 73.5957 172.557 74.1023C173.097 74.6033 173.528 75.2675 173.849 76.095C174.17 76.9225 174.33 77.9414 174.33 79.1517V79.9961H164.333V78.2735H172.304C172.304 77.5417 172.157 76.8888 171.864 76.3146C171.577 75.7404 171.166 75.2872 170.632 74.9551C170.103 74.623 169.478 74.4569 168.757 74.4569C167.963 74.4569 167.277 74.654 166.697 75.048C166.123 75.4364 165.681 75.943 165.371 76.5679C165.062 77.1927 164.907 77.8626 164.907 78.5775V79.7259C164.907 80.7054 165.076 81.5357 165.413 82.2168C165.757 82.8923 166.232 83.4074 166.84 83.762C167.448 84.111 168.155 84.2855 168.96 84.2855C169.483 84.2855 169.956 84.2124 170.378 84.066C170.806 83.914 171.175 83.6888 171.485 83.3905C171.794 83.0865 172.033 82.7094 172.202 82.259L174.127 82.7994C173.925 83.4524 173.584 84.0266 173.106 84.522C172.627 85.0117 172.036 85.3945 171.333 85.6703C170.629 85.9405 169.838 86.0756 168.96 86.0756ZM176.99 85.8054V84.2855L184.353 74.8285V74.6934H177.226V72.8357H186.92V74.4232L179.759 83.8127V83.9478H187.156V85.8054H176.99ZM197.656 77.4629V79.3206H190.09V77.4629H197.656ZM211.768 72.8357L206.972 85.8054H204.945L200.149 72.8357H202.311L205.891 83.171H206.026L209.606 72.8357H211.768ZM219.203 86.0756C218.032 86.0756 217.004 85.797 216.121 85.2397C215.242 84.6824 214.556 83.9027 214.06 82.9007C213.571 81.8987 213.326 80.7279 213.326 79.3881C213.326 78.0371 213.571 76.8578 214.06 75.8502C214.556 74.8425 215.242 74.0601 216.121 73.5028C217.004 72.9455 218.032 72.6668 219.203 72.6668C220.373 72.6668 221.398 72.9455 222.276 73.5028C223.16 74.0601 223.847 74.8425 224.336 75.8502C224.832 76.8578 225.079 78.0371 225.079 79.3881C225.079 80.7279 224.832 81.8987 224.336 82.9007C223.847 83.9027 223.16 84.6824 222.276 85.2397C221.398 85.797 220.373 86.0756 219.203 86.0756ZM219.203 84.2855C220.092 84.2855 220.824 84.0576 221.398 83.6016C221.972 83.1456 222.397 82.5461 222.673 81.8031C222.949 81.06 223.087 80.255 223.087 79.3881C223.087 78.5212 222.949 77.7134 222.673 76.9647C222.397 76.2161 221.972 75.6109 221.398 75.1493C220.824 74.6877 220.092 74.4569 219.203 74.4569C218.313 74.4569 217.581 74.6877 217.007 75.1493C216.433 75.6109 216.008 76.2161 215.732 76.9647C215.456 77.7134 215.318 78.5212 215.318 79.3881C215.318 80.255 215.456 81.06 215.732 81.8031C216.008 82.5461 216.433 83.1456 217.007 83.6016C217.581 84.0576 218.313 84.2855 219.203 84.2855ZM236.295 80.5027V72.8357H238.288V85.8054H236.295V83.61H236.16C235.856 84.2686 235.383 84.8288 234.741 85.2903C234.1 85.7463 233.289 85.9743 232.31 85.9743C231.499 85.9743 230.778 85.797 230.148 85.4423C229.517 85.0821 229.022 84.5417 228.662 83.8211C228.302 83.095 228.121 82.1802 228.121 81.0769V72.8357H230.114V80.9418C230.114 81.8875 230.379 82.6418 230.908 83.2047C231.443 83.7676 232.124 84.0491 232.951 84.0491C233.447 84.0491 233.95 83.9224 234.463 83.6691C234.981 83.4158 235.414 83.0274 235.763 82.5039C236.118 81.9804 236.295 81.3133 236.295 80.5027ZM251.124 75.7404L249.334 76.247C249.222 75.9487 249.056 75.6588 248.836 75.3773C248.622 75.0902 248.33 74.8538 247.958 74.668C247.586 74.4823 247.111 74.3894 246.531 74.3894C245.737 74.3894 245.076 74.5723 244.547 74.9382C244.023 75.2985 243.761 75.7573 243.761 76.3146C243.761 76.8099 243.942 77.2012 244.302 77.4883C244.662 77.7754 245.225 78.0146 245.991 78.206L247.916 78.6788C249.075 78.9603 249.939 79.3909 250.508 79.9707C251.077 80.5449 251.361 81.2852 251.361 82.1915C251.361 82.9345 251.147 83.5988 250.719 84.1842C250.297 84.7696 249.706 85.2312 248.946 85.569C248.186 85.9067 247.302 86.0756 246.295 86.0756C244.972 86.0756 243.877 85.7885 243.01 85.2144C242.143 84.6402 241.594 83.8014 241.363 82.6981L243.255 82.2252C243.435 82.9233 243.776 83.4468 244.277 83.7958C244.783 84.1448 245.445 84.3193 246.261 84.3193C247.19 84.3193 247.927 84.1223 248.473 83.7282C249.025 83.3286 249.301 82.8501 249.301 82.2928C249.301 81.8425 249.143 81.4653 248.828 81.1613C248.512 80.8517 248.028 80.6209 247.375 80.4689L245.214 79.9623C244.026 79.6808 243.153 79.2446 242.596 78.6535C242.045 78.0568 241.769 77.3109 241.769 76.4159C241.769 75.6841 241.974 75.0367 242.385 74.4738C242.802 73.9109 243.367 73.469 244.082 73.1481C244.803 72.8273 245.619 72.6668 246.531 72.6668C247.814 72.6668 248.822 72.9483 249.554 73.5112C250.291 74.0741 250.815 74.8172 251.124 75.7404ZM266.486 86.0756C265.236 86.0756 264.158 85.7998 263.252 85.2481C262.351 84.6908 261.656 83.914 261.166 82.9176C260.682 81.9156 260.44 80.7504 260.44 79.4219C260.44 78.0934 260.682 76.9225 261.166 75.9093C261.656 74.8904 262.337 74.0967 263.21 73.5281C264.088 72.9539 265.112 72.6668 266.283 72.6668C266.959 72.6668 267.626 72.7794 268.284 73.0046C268.943 73.2298 269.543 73.5957 270.083 74.1023C270.623 74.6033 271.054 75.2675 271.375 76.095C271.696 76.9225 271.856 77.9414 271.856 79.1517V79.9961H261.859V78.2735H269.83C269.83 77.5417 269.683 76.8888 269.391 76.3146C269.103 75.7404 268.692 75.2872 268.158 74.9551C267.629 74.623 267.004 74.4569 266.283 74.4569C265.489 74.4569 264.803 74.654 264.223 75.048C263.649 75.4364 263.207 75.943 262.897 76.5679C262.588 77.1927 262.433 77.8626 262.433 78.5775V79.7259C262.433 80.7054 262.602 81.5357 262.939 82.2168C263.283 82.8923 263.758 83.4074 264.366 83.762C264.974 84.111 265.681 84.2855 266.486 84.2855C267.009 84.2855 267.482 84.2124 267.904 84.066C268.332 83.914 268.701 83.6888 269.011 83.3905C269.32 83.0865 269.559 82.7094 269.728 82.259L271.653 82.7994C271.451 83.4524 271.11 84.0266 270.632 84.522C270.153 85.0117 269.562 85.3945 268.859 85.6703C268.155 85.9405 267.364 86.0756 266.486 86.0756ZM276.88 78.0033V85.8054H274.887V72.8357H276.813V74.8622H276.982C277.285 74.2036 277.747 73.6745 278.366 73.2748C278.986 72.8695 279.785 72.6668 280.764 72.6668C281.642 72.6668 282.411 72.847 283.07 73.2073C283.728 73.5619 284.24 74.1023 284.606 74.8285C284.972 75.549 285.155 76.4609 285.155 77.5643V85.8054H283.162V77.6994C283.162 76.6805 282.898 75.8868 282.369 75.3182C281.84 74.744 281.113 74.4569 280.19 74.4569C279.554 74.4569 278.986 74.5949 278.485 74.8707C277.989 75.1465 277.598 75.549 277.311 76.0781C277.024 76.6073 276.88 77.249 276.88 78.0033ZM297.477 68.5125V85.8054H295.484V68.5125H297.477ZM301.127 85.8054V72.8357H303.119V85.8054H301.127ZM302.14 70.6741C301.751 70.6741 301.416 70.5418 301.135 70.2772C300.859 70.0127 300.721 69.6946 300.721 69.3231C300.721 68.9516 300.859 68.6335 301.135 68.3689C301.416 68.1044 301.751 67.9721 302.14 67.9721C302.528 67.9721 302.86 68.1044 303.136 68.3689C303.418 68.6335 303.558 68.9516 303.558 69.3231C303.558 69.6946 303.418 70.0127 303.136 70.2772C302.86 70.5418 302.528 70.6741 302.14 70.6741ZM312.004 90.9393C311.042 90.9393 310.214 90.8154 309.522 90.5677C308.829 90.3257 308.252 90.0048 307.791 89.6051C307.335 89.2111 306.972 88.7889 306.702 88.3386L308.289 87.224C308.469 87.4604 308.697 87.7306 308.973 88.0346C309.249 88.3442 309.626 88.6116 310.104 88.8367C310.589 89.0675 311.222 89.1829 312.004 89.1829C313.051 89.1829 313.915 88.9296 314.597 88.423C315.278 87.9164 315.618 87.1227 315.618 86.0418V83.4074H315.449C315.303 83.6438 315.095 83.9365 314.825 84.2855C314.56 84.6289 314.177 84.9357 313.676 85.2059C313.181 85.4705 312.511 85.6028 311.667 85.6028C310.62 85.6028 309.679 85.3551 308.846 84.8597C308.019 84.3643 307.363 83.6438 306.879 82.6981C306.4 81.7524 306.161 80.604 306.161 79.253C306.161 77.9245 306.395 76.7677 306.862 75.7826C307.329 74.7919 307.979 74.0263 308.813 73.4859C309.646 72.9399 310.608 72.6668 311.7 72.6668C312.545 72.6668 313.215 72.8076 313.71 73.089C314.211 73.3649 314.594 73.6801 314.858 74.0347C315.129 74.3838 315.337 74.6708 315.483 74.896H315.686V72.8357H317.611V86.1769C317.611 87.2915 317.358 88.1978 316.851 88.8959C316.35 89.5995 315.675 90.1146 314.825 90.4411C313.98 90.7732 313.04 90.9393 312.004 90.9393ZM311.937 83.8127C312.736 83.8127 313.412 83.6297 313.963 83.2638C314.515 82.8979 314.934 82.3716 315.221 81.6848C315.509 80.9981 315.652 80.1762 315.652 79.2192C315.652 78.2848 315.511 77.4601 315.23 76.7452C314.948 76.0303 314.532 75.4702 313.98 75.0649C313.429 74.6596 312.747 74.4569 311.937 74.4569C311.092 74.4569 310.389 74.6708 309.826 75.0987C309.269 75.5265 308.849 76.1007 308.568 76.8212C308.292 77.5417 308.154 78.3411 308.154 79.2192C308.154 80.1199 308.295 80.9165 308.576 81.6088C308.863 82.2956 309.285 82.836 309.843 83.2301C310.406 83.6185 311.104 83.8127 311.937 83.8127ZM323.251 78.0033V85.8054H321.259V72.8357H323.184V74.8622H323.353C323.657 74.2036 324.118 73.6745 324.738 73.2748C325.357 72.8695 326.156 72.6668 327.136 72.6668C328.014 72.6668 328.782 72.847 329.441 73.2073C330.099 73.5619 330.612 74.1023 330.978 74.8285C331.343 75.549 331.526 76.4609 331.526 77.5643V85.8054H329.534V77.6994C329.534 76.6805 329.269 75.8868 328.74 75.3182C328.211 74.744 327.485 74.4569 326.561 74.4569C325.925 74.4569 325.357 74.5949 324.856 74.8707C324.36 75.1465 323.969 75.549 323.682 76.0781C323.395 76.6073 323.251 77.249 323.251 78.0033ZM340.606 86.0756C339.356 86.0756 338.278 85.7998 337.372 85.2481C336.471 84.6908 335.776 83.914 335.286 82.9176C334.802 81.9156 334.56 80.7504 334.56 79.4219C334.56 78.0934 334.802 76.9225 335.286 75.9093C335.776 74.8904 336.457 74.0967 337.329 73.5281C338.208 72.9539 339.232 72.6668 340.403 72.6668C341.078 72.6668 341.746 72.7794 342.404 73.0046C343.063 73.2298 343.662 73.5957 344.203 74.1023C344.743 74.6033 345.174 75.2675 345.495 76.095C345.815 76.9225 345.976 77.9414 345.976 79.1517V79.9961H335.978V78.2735H343.949C343.949 77.5417 343.803 76.8888 343.51 76.3146C343.223 75.7404 342.812 75.2872 342.278 74.9551C341.748 74.623 341.124 74.4569 340.403 74.4569C339.609 74.4569 338.923 74.654 338.343 75.048C337.769 75.4364 337.327 75.943 337.017 76.5679C336.707 77.1927 336.553 77.8626 336.553 78.5775V79.7259C336.553 80.7054 336.721 81.5357 337.059 82.2168C337.403 82.8923 337.878 83.4074 338.486 83.762C339.094 84.111 339.801 84.2855 340.606 84.2855C341.129 84.2855 341.602 84.2124 342.024 84.066C342.452 83.914 342.821 83.6888 343.13 83.3905C343.44 83.0865 343.679 82.7094 343.848 82.259L345.773 82.7994C345.571 83.4524 345.23 84.0266 344.752 84.522C344.273 85.0117 343.682 85.3945 342.978 85.6703C342.275 85.9405 341.484 86.0756 340.606 86.0756Z" fill="white" fill-opacity="0.6"/>
</g>
<defs>
<filter id="filter0_bd_1_1195" x="-8.83339" y="-14.8056" width="421.583" height="148.25" filterUnits="userSpaceOnUse" color-interpolation-filters="sRGB">
<feFlood flood-opacity="0" result="BackgroundImageFix"/>
<feGaussianBlur in="BackgroundImageFix" stdDeviation="10.4028"/>
<feComposite in2="SourceAlpha" operator="in" result="effect1_backgroundBlur_1_1195"/>
<feColorMatrix in="SourceAlpha" type="matrix" values="0 0 0 0 0 0 0 0 0 0 0 0 0 0 0 0 0 0 127 0" result="hardAlpha"/>
<feOffset dy="5.94444"/>
<feGaussianBlur stdDeviation="5.94444"/>
<feComposite in2="hardAlpha" operator="out"/>
<feColorMatrix type="matrix" values="0 0 0 0 0.329412 0 0 0 0 0.72549 0 0 0 0 0.929412 0 0 0 0.1 0"/>
<feBlend mode="normal" in2="effect1_backgroundBlur_1_1195" result="effect2_dropShadow_1_1195"/>
<feBlend mode="normal" in="SourceGraphic" in2="effect2_dropShadow_1_1195" result="shape"/>
</filter>
</defs>
</svg>
